<?xml version="1.0" encoding="utf-8" standalone="no"?>
<!DOCTYPE svg PUBLIC "-//W3C//DTD SVG 1.1//EN"
  "http://www.w3.org/Graphics/SVG/1.1/DTD/svg11.dtd">
<svg xmlns:xlink="http://www.w3.org/1999/xlink" width="349.2pt" height="291.6pt" viewBox="0 0 349.2 291.6" xmlns="http://www.w3.org/2000/svg" version="1.1">
 <metadata>
  <rdf:RDF xmlns:dc="http://purl.org/dc/elements/1.1/" xmlns:cc="http://creativecommons.org/ns#" xmlns:rdf="http://www.w3.org/1999/02/22-rdf-syntax-ns#">
   <cc:Work>
    <dc:type rdf:resource="http://purl.org/dc/dcmitype/StillImage"/>
    <dc:date>2025-04-09T08:05:25.479189</dc:date>
    <dc:format>image/svg+xml</dc:format>
    <dc:creator>
     <cc:Agent>
      <dc:title>Matplotlib v3.6.3, https://matplotlib.org/</dc:title>
     </cc:Agent>
    </dc:creator>
   </cc:Work>
  </rdf:RDF>
 </metadata>
 <defs>
  <style type="text/css">*{stroke-linejoin: round; stroke-linecap: butt}</style>
 </defs>
 <g id="figure_1">
  <g id="patch_1">
   <path d="M 0 291.6 
L 349.2 291.6 
L 349.2 0 
L 0 0 
z
" style="fill: none"/>
  </g>
  <g id="axes_1">
   <g id="patch_2">
    <path d="M 57.468536 145.8 
Q 174.602514 145.8 290.618458 145.8 
" clip-path="url(#pec93f19cdf)" style="fill: none; stroke: #000000; stroke-linecap: round"/>
    <path d="M 286.618458 143.8 
L 290.618458 145.8 
L 286.618458 147.8 
L 286.618458 143.8 
z
" clip-path="url(#pec93f19cdf)" style="stroke: #000000; stroke-linecap: round"/>
   </g>
   <g id="patch_3">
    <path d="M 55.855725 153.915151 
Q 174.600043 203.072745 292.311346 251.802693 
" clip-path="url(#pec93f19cdf)" style="fill: none; stroke: #000000; stroke-linecap: round"/>
    <path d="M 289.380517 248.424788 
L 292.311346 251.802693 
L 287.850524 252.120613 
L 289.380517 248.424788 
z
" clip-path="url(#pec93f19cdf)" style="stroke: #000000; stroke-linecap: round"/>
   </g>
   <g id="patch_4">
    <path d="M 36.252893 124.584901 
Q 36.252893 88.525057 36.252893 53.583247 
" clip-path="url(#pec93f19cdf)" style="fill: none; stroke: #000000; stroke-linecap: round"/>
    <path d="M 34.252893 57.583247 
L 36.252893 53.583247 
L 38.252893 57.583247 
L 34.252893 57.583247 
z
" clip-path="url(#pec93f19cdf)" style="stroke: #000000; stroke-linecap: round"/>
   </g>
   <g id="patch_5">
    <path d="M 312.947107 124.584901 
Q 312.947107 88.525057 312.947107 53.583247 
" clip-path="url(#pec93f19cdf)" style="fill: none; stroke: #000000; stroke-linecap: round"/>
    <path d="M 310.947107 57.583247 
L 312.947107 53.583247 
L 314.947107 57.583247 
L 310.947107 57.583247 
z
" clip-path="url(#pec93f19cdf)" style="stroke: #000000; stroke-linecap: round"/>
   </g>
   <g id="patch_6">
    <path d="M 312.947107 167.015099 
Q 312.947107 203.074943 312.947107 238.016753 
" clip-path="url(#pec93f19cdf)" style="fill: none; stroke: #000000; stroke-linecap: round"/>
    <path d="M 314.947107 234.016753 
L 312.947107 238.016753 
L 310.947107 234.016753 
L 314.947107 234.016753 
z
" clip-path="url(#pec93f19cdf)" style="stroke: #000000; stroke-linecap: round"/>
   </g>
   <g id="text_1">
    <g id="patch_7">
     <path d="M 160.59875 152.07125 
L 188.60125 152.07125 
Q 191.00125 152.07125 191.00125 149.67125 
L 191.00125 141.92875 
Q 191.00125 139.52875 188.60125 139.52875 
L 160.59875 139.52875 
Q 158.19875 139.52875 158.19875 141.92875 
L 158.19875 149.67125 
Q 158.19875 152.07125 160.59875 152.07125 
z
" clip-path="url(#pec93f19cdf)" style="fill: #ffffff; stroke: #ffffff; stroke-linejoin: miter"/>
    </g>
    <g clip-path="url(#pec93f19cdf)">
     <!-- :knows -->
     <g style="fill: #8b0000" transform="translate(160.59875 148.0075) scale(0.08 -0.08)">
      <defs>
       <path id="DejaVuSans-3a" d="M 750 794 
L 1409 794 
L 1409 0 
L 750 0 
L 750 794 
z
M 750 3309 
L 1409 3309 
L 1409 2516 
L 750 2516 
L 750 3309 
z
" transform="scale(0.015625)"/>
       <path id="DejaVuSans-6b" d="M 581 4863 
L 1159 4863 
L 1159 1991 
L 2875 3500 
L 3609 3500 
L 1753 1863 
L 3688 0 
L 2938 0 
L 1159 1709 
L 1159 0 
L 581 0 
L 581 4863 
z
" transform="scale(0.015625)"/>
       <path id="DejaVuSans-6e" d="M 3513 2113 
L 3513 0 
L 2938 0 
L 2938 2094 
Q 2938 2591 2744 2837 
Q 2550 3084 2163 3084 
Q 1697 3084 1428 2787 
Q 1159 2491 1159 1978 
L 1159 0 
L 581 0 
L 581 3500 
L 1159 3500 
L 1159 2956 
Q 1366 3272 1645 3428 
Q 1925 3584 2291 3584 
Q 2894 3584 3203 3211 
Q 3513 2838 3513 2113 
z
" transform="scale(0.015625)"/>
       <path id="DejaVuSans-6f" d="M 1959 3097 
Q 1497 3097 1228 2736 
Q 959 2375 959 1747 
Q 959 1119 1226 758 
Q 1494 397 1959 397 
Q 2419 397 2687 759 
Q 2956 1122 2956 1747 
Q 2956 2369 2687 2733 
Q 2419 3097 1959 3097 
z
M 1959 3584 
Q 2709 3584 3137 3096 
Q 3566 2609 3566 1747 
Q 3566 888 3137 398 
Q 2709 -91 1959 -91 
Q 1206 -91 779 398 
Q 353 888 353 1747 
Q 353 2609 779 3096 
Q 1206 3584 1959 3584 
z
" transform="scale(0.015625)"/>
       <path id="DejaVuSans-77" d="M 269 3500 
L 844 3500 
L 1563 769 
L 2278 3500 
L 2956 3500 
L 3675 769 
L 4391 3500 
L 4966 3500 
L 4050 0 
L 3372 0 
L 2619 2869 
L 1863 0 
L 1184 0 
L 269 3500 
z
" transform="scale(0.015625)"/>
       <path id="DejaVuSans-73" d="M 2834 3397 
L 2834 2853 
Q 2591 2978 2328 3040 
Q 2066 3103 1784 3103 
Q 1356 3103 1142 2972 
Q 928 2841 928 2578 
Q 928 2378 1081 2264 
Q 1234 2150 1697 2047 
L 1894 2003 
Q 2506 1872 2764 1633 
Q 3022 1394 3022 966 
Q 3022 478 2636 193 
Q 2250 -91 1575 -91 
Q 1294 -91 989 -36 
Q 684 19 347 128 
L 347 722 
Q 666 556 975 473 
Q 1284 391 1588 391 
Q 1994 391 2212 530 
Q 2431 669 2431 922 
Q 2431 1156 2273 1281 
Q 2116 1406 1581 1522 
L 1381 1569 
Q 847 1681 609 1914 
Q 372 2147 372 2553 
Q 372 3047 722 3315 
Q 1072 3584 1716 3584 
Q 2034 3584 2315 3537 
Q 2597 3491 2834 3397 
z
" transform="scale(0.015625)"/>
      </defs>
      <use xlink:href="#DejaVuSans-3a"/>
      <use xlink:href="#DejaVuSans-6b" x="33.691406"/>
      <use xlink:href="#DejaVuSans-6e" x="91.601562"/>
      <use xlink:href="#DejaVuSans-6f" x="154.980469"/>
      <use xlink:href="#DejaVuSans-77" x="216.162109"/>
      <use xlink:href="#DejaVuSans-73" x="297.949219"/>
     </g>
    </g>
   </g>
   <g id="text_2">
    <g id="patch_8">
     <path d="M 159.264716 203.511638 
L 185.137802 214.222539 
Q 187.355297 215.140534 188.273293 212.923039 
L 191.234784 205.769307 
Q 192.152779 203.551812 189.935284 202.633817 
L 164.062198 191.922916 
Q 161.844703 191.00492 160.926707 193.222415 
L 157.965216 200.376147 
Q 157.047221 202.593642 159.264716 203.511638 
z
" clip-path="url(#pec93f19cdf)" style="fill: #ffffff; stroke: #ffffff; stroke-linejoin: miter"/>
    </g>
    <g clip-path="url(#pec93f19cdf)">
     <!-- :knows -->
     <g style="fill: #8b0000" transform="translate(160.819092 199.75691) rotate(-337.511497) scale(0.08 -0.08)">
      <use xlink:href="#DejaVuSans-3a"/>
      <use xlink:href="#DejaVuSans-6b" x="33.691406"/>
      <use xlink:href="#DejaVuSans-6e" x="91.601562"/>
      <use xlink:href="#DejaVuSans-6f" x="154.980469"/>
      <use xlink:href="#DejaVuSans-77" x="216.162109"/>
      <use xlink:href="#DejaVuSans-73" x="297.949219"/>
     </g>
    </g>
   </g>
   <g id="text_3">
    <g id="patch_9">
     <path d="M 42.524143 101.218523 
L 42.524143 75.836023 
Q 42.524143 73.436023 40.124143 73.436023 
L 32.381643 73.436023 
Q 29.981643 73.436023 29.981643 75.836023 
L 29.981643 101.218523 
Q 29.981643 103.618523 32.381643 103.618523 
L 40.124143 103.618523 
Q 42.524143 103.618523 42.524143 101.218523 
z
" clip-path="url(#pec93f19cdf)" style="fill: #ffffff; stroke: #ffffff; stroke-linejoin: miter"/>
    </g>
    <g clip-path="url(#pec93f19cdf)">
     <!-- :name -->
     <g style="fill: #8b0000" transform="translate(38.460393 101.218523) rotate(-90) scale(0.08 -0.08)">
      <defs>
       <path id="DejaVuSans-61" d="M 2194 1759 
Q 1497 1759 1228 1600 
Q 959 1441 959 1056 
Q 959 750 1161 570 
Q 1363 391 1709 391 
Q 2188 391 2477 730 
Q 2766 1069 2766 1631 
L 2766 1759 
L 2194 1759 
z
M 3341 1997 
L 3341 0 
L 2766 0 
L 2766 531 
Q 2569 213 2275 61 
Q 1981 -91 1556 -91 
Q 1019 -91 701 211 
Q 384 513 384 1019 
Q 384 1609 779 1909 
Q 1175 2209 1959 2209 
L 2766 2209 
L 2766 2266 
Q 2766 2663 2505 2880 
Q 2244 3097 1772 3097 
Q 1472 3097 1187 3025 
Q 903 2953 641 2809 
L 641 3341 
Q 956 3463 1253 3523 
Q 1550 3584 1831 3584 
Q 2591 3584 2966 3190 
Q 3341 2797 3341 1997 
z
" transform="scale(0.015625)"/>
       <path id="DejaVuSans-6d" d="M 3328 2828 
Q 3544 3216 3844 3400 
Q 4144 3584 4550 3584 
Q 5097 3584 5394 3201 
Q 5691 2819 5691 2113 
L 5691 0 
L 5113 0 
L 5113 2094 
Q 5113 2597 4934 2840 
Q 4756 3084 4391 3084 
Q 3944 3084 3684 2787 
Q 3425 2491 3425 1978 
L 3425 0 
L 2847 0 
L 2847 2094 
Q 2847 2600 2669 2842 
Q 2491 3084 2119 3084 
Q 1678 3084 1418 2786 
Q 1159 2488 1159 1978 
L 1159 0 
L 581 0 
L 581 3500 
L 1159 3500 
L 1159 2956 
Q 1356 3278 1631 3431 
Q 1906 3584 2284 3584 
Q 2666 3584 2933 3390 
Q 3200 3197 3328 2828 
z
" transform="scale(0.015625)"/>
       <path id="DejaVuSans-65" d="M 3597 1894 
L 3597 1613 
L 953 1613 
Q 991 1019 1311 708 
Q 1631 397 2203 397 
Q 2534 397 2845 478 
Q 3156 559 3463 722 
L 3463 178 
Q 3153 47 2828 -22 
Q 2503 -91 2169 -91 
Q 1331 -91 842 396 
Q 353 884 353 1716 
Q 353 2575 817 3079 
Q 1281 3584 2069 3584 
Q 2775 3584 3186 3129 
Q 3597 2675 3597 1894 
z
M 3022 2063 
Q 3016 2534 2758 2815 
Q 2500 3097 2075 3097 
Q 1594 3097 1305 2825 
Q 1016 2553 972 2059 
L 3022 2063 
z
" transform="scale(0.015625)"/>
      </defs>
      <use xlink:href="#DejaVuSans-3a"/>
      <use xlink:href="#DejaVuSans-6e" x="33.691406"/>
      <use xlink:href="#DejaVuSans-61" x="97.070312"/>
      <use xlink:href="#DejaVuSans-6d" x="158.349609"/>
      <use xlink:href="#DejaVuSans-65" x="255.761719"/>
     </g>
    </g>
   </g>
   <g id="text_4">
    <g id="patch_10">
     <path d="M 319.218357 101.218523 
L 319.218357 75.836023 
Q 319.218357 73.436023 316.818357 73.436023 
L 309.075857 73.436023 
Q 306.675857 73.436023 306.675857 75.836023 
L 306.675857 101.218523 
Q 306.675857 103.618523 309.075857 103.618523 
L 316.818357 103.618523 
Q 319.218357 103.618523 319.218357 101.218523 
z
" clip-path="url(#pec93f19cdf)" style="fill: #ffffff; stroke: #ffffff; stroke-linejoin: miter"/>
    </g>
    <g clip-path="url(#pec93f19cdf)">
     <!-- :name -->
     <g style="fill: #8b0000" transform="translate(315.154607 101.218523) rotate(-90) scale(0.08 -0.08)">
      <use xlink:href="#DejaVuSans-3a"/>
      <use xlink:href="#DejaVuSans-6e" x="33.691406"/>
      <use xlink:href="#DejaVuSans-61" x="97.070312"/>
      <use xlink:href="#DejaVuSans-6d" x="158.349609"/>
      <use xlink:href="#DejaVuSans-65" x="255.761719"/>
     </g>
    </g>
   </g>
   <g id="text_5">
    <g id="patch_11">
     <path d="M 306.675857 189.071477 
L 306.675857 217.073977 
Q 306.675857 219.473977 309.075857 219.473977 
L 316.818357 219.473977 
Q 319.218357 219.473977 319.218357 217.073977 
L 319.218357 189.071477 
Q 319.218357 186.671477 316.818357 186.671477 
L 309.075857 186.671477 
Q 306.675857 186.671477 306.675857 189.071477 
z
" clip-path="url(#pec93f19cdf)" style="fill: #ffffff; stroke: #ffffff; stroke-linejoin: miter"/>
    </g>
    <g clip-path="url(#pec93f19cdf)">
     <!-- :knows -->
     <g style="fill: #8b0000" transform="translate(310.739607 189.071477) rotate(-270) scale(0.08 -0.08)">
      <use xlink:href="#DejaVuSans-3a"/>
      <use xlink:href="#DejaVuSans-6b" x="33.691406"/>
      <use xlink:href="#DejaVuSans-6e" x="91.601562"/>
      <use xlink:href="#DejaVuSans-6f" x="154.980469"/>
      <use xlink:href="#DejaVuSans-77" x="216.162109"/>
      <use xlink:href="#DejaVuSans-73" x="297.949219"/>
     </g>
    </g>
   </g>
   <g id="PathCollection_1">
    <defs>
     <path id="md7899a74d0" d="M 0 21.213203 
C 5.625807 21.213203 11.021954 18.978047 15 15 
C 18.978047 11.021954 21.213203 5.625807 21.213203 0 
C 21.213203 -5.625807 18.978047 -11.021954 15 -15 
C 11.021954 -18.978047 5.625807 -21.213203 0 -21.213203 
C -5.625807 -21.213203 -11.021954 -18.978047 -15 -15 
C -18.978047 -11.021954 -21.213203 -5.625807 -21.213203 0 
C -21.213203 5.625807 -18.978047 11.021954 -15 15 
C -11.021954 18.978047 -5.625807 21.213203 0 21.213203 
z
" style="stroke: #e0ffff"/>
    </defs>
    <g clip-path="url(#pec93f19cdf)">
     <use xlink:href="#md7899a74d0" x="36.252893" y="145.8" style="fill: #e0ffff; stroke: #e0ffff"/>
     <use xlink:href="#md7899a74d0" x="312.947107" y="145.8" style="fill: #e0ffff; stroke: #e0ffff"/>
     <use xlink:href="#md7899a74d0" x="312.947107" y="260.345455" style="fill: #e0ffff; stroke: #e0ffff"/>
     <use xlink:href="#md7899a74d0" x="36.252893" y="31.254545" style="fill: #e0ffff; stroke: #e0ffff"/>
     <use xlink:href="#md7899a74d0" x="312.947107" y="31.254545" style="fill: #e0ffff; stroke: #e0ffff"/>
    </g>
   </g>
   <g id="text_6">
    <g clip-path="url(#pec93f19cdf)">
     <!-- :Alice -->
     <g transform="translate(23.915158 148.283437) scale(0.09 -0.09)">
      <defs>
       <path id="DejaVuSans-41" d="M 2188 4044 
L 1331 1722 
L 3047 1722 
L 2188 4044 
z
M 1831 4666 
L 2547 4666 
L 4325 0 
L 3669 0 
L 3244 1197 
L 1141 1197 
L 716 0 
L 50 0 
L 1831 4666 
z
" transform="scale(0.015625)"/>
       <path id="DejaVuSans-6c" d="M 603 4863 
L 1178 4863 
L 1178 0 
L 603 0 
L 603 4863 
z
" transform="scale(0.015625)"/>
       <path id="DejaVuSans-69" d="M 603 3500 
L 1178 3500 
L 1178 0 
L 603 0 
L 603 3500 
z
M 603 4863 
L 1178 4863 
L 1178 4134 
L 603 4134 
L 603 4863 
z
" transform="scale(0.015625)"/>
       <path id="DejaVuSans-63" d="M 3122 3366 
L 3122 2828 
Q 2878 2963 2633 3030 
Q 2388 3097 2138 3097 
Q 1578 3097 1268 2742 
Q 959 2388 959 1747 
Q 959 1106 1268 751 
Q 1578 397 2138 397 
Q 2388 397 2633 464 
Q 2878 531 3122 666 
L 3122 134 
Q 2881 22 2623 -34 
Q 2366 -91 2075 -91 
Q 1284 -91 818 406 
Q 353 903 353 1747 
Q 353 2603 823 3093 
Q 1294 3584 2113 3584 
Q 2378 3584 2631 3529 
Q 2884 3475 3122 3366 
z
" transform="scale(0.015625)"/>
      </defs>
      <use xlink:href="#DejaVuSans-3a"/>
      <use xlink:href="#DejaVuSans-41" x="33.691406"/>
      <use xlink:href="#DejaVuSans-6c" x="102.099609"/>
      <use xlink:href="#DejaVuSans-69" x="129.882812"/>
      <use xlink:href="#DejaVuSans-63" x="157.666016"/>
      <use xlink:href="#DejaVuSans-65" x="212.646484"/>
     </g>
    </g>
   </g>
   <g id="text_7">
    <g clip-path="url(#pec93f19cdf)">
     <!-- :Bob -->
     <g transform="translate(302.733514 148.283437) scale(0.09 -0.09)">
      <defs>
       <path id="DejaVuSans-42" d="M 1259 2228 
L 1259 519 
L 2272 519 
Q 2781 519 3026 730 
Q 3272 941 3272 1375 
Q 3272 1813 3026 2020 
Q 2781 2228 2272 2228 
L 1259 2228 
z
M 1259 4147 
L 1259 2741 
L 2194 2741 
Q 2656 2741 2882 2914 
Q 3109 3088 3109 3444 
Q 3109 3797 2882 3972 
Q 2656 4147 2194 4147 
L 1259 4147 
z
M 628 4666 
L 2241 4666 
Q 2963 4666 3353 4366 
Q 3744 4066 3744 3513 
Q 3744 3084 3544 2831 
Q 3344 2578 2956 2516 
Q 3422 2416 3680 2098 
Q 3938 1781 3938 1306 
Q 3938 681 3513 340 
Q 3088 0 2303 0 
L 628 0 
L 628 4666 
z
" transform="scale(0.015625)"/>
       <path id="DejaVuSans-62" d="M 3116 1747 
Q 3116 2381 2855 2742 
Q 2594 3103 2138 3103 
Q 1681 3103 1420 2742 
Q 1159 2381 1159 1747 
Q 1159 1113 1420 752 
Q 1681 391 2138 391 
Q 2594 391 2855 752 
Q 3116 1113 3116 1747 
z
M 1159 2969 
Q 1341 3281 1617 3432 
Q 1894 3584 2278 3584 
Q 2916 3584 3314 3078 
Q 3713 2572 3713 1747 
Q 3713 922 3314 415 
Q 2916 -91 2278 -91 
Q 1894 -91 1617 61 
Q 1341 213 1159 525 
L 1159 0 
L 581 0 
L 581 4863 
L 1159 4863 
L 1159 2969 
z
" transform="scale(0.015625)"/>
      </defs>
      <use xlink:href="#DejaVuSans-3a"/>
      <use xlink:href="#DejaVuSans-42" x="33.691406"/>
      <use xlink:href="#DejaVuSans-6f" x="102.294922"/>
      <use xlink:href="#DejaVuSans-62" x="163.476562"/>
     </g>
    </g>
   </g>
   <g id="text_8">
    <g clip-path="url(#pec93f19cdf)">
     <!-- :Carol -->
     <g transform="translate(299.778982 262.828892) scale(0.09 -0.09)">
      <defs>
       <path id="DejaVuSans-43" d="M 4122 4306 
L 4122 3641 
Q 3803 3938 3442 4084 
Q 3081 4231 2675 4231 
Q 1875 4231 1450 3742 
Q 1025 3253 1025 2328 
Q 1025 1406 1450 917 
Q 1875 428 2675 428 
Q 3081 428 3442 575 
Q 3803 722 4122 1019 
L 4122 359 
Q 3791 134 3420 21 
Q 3050 -91 2638 -91 
Q 1578 -91 968 557 
Q 359 1206 359 2328 
Q 359 3453 968 4101 
Q 1578 4750 2638 4750 
Q 3056 4750 3426 4639 
Q 3797 4528 4122 4306 
z
" transform="scale(0.015625)"/>
       <path id="DejaVuSans-72" d="M 2631 2963 
Q 2534 3019 2420 3045 
Q 2306 3072 2169 3072 
Q 1681 3072 1420 2755 
Q 1159 2438 1159 1844 
L 1159 0 
L 581 0 
L 581 3500 
L 1159 3500 
L 1159 2956 
Q 1341 3275 1631 3429 
Q 1922 3584 2338 3584 
Q 2397 3584 2469 3576 
Q 2541 3569 2628 3553 
L 2631 2963 
z
" transform="scale(0.015625)"/>
      </defs>
      <use xlink:href="#DejaVuSans-3a"/>
      <use xlink:href="#DejaVuSans-43" x="33.691406"/>
      <use xlink:href="#DejaVuSans-61" x="103.515625"/>
      <use xlink:href="#DejaVuSans-72" x="164.794922"/>
      <use xlink:href="#DejaVuSans-6f" x="203.658203"/>
      <use xlink:href="#DejaVuSans-6c" x="264.839844"/>
     </g>
    </g>
   </g>
   <g id="text_9">
    <g clip-path="url(#pec93f19cdf)">
     <!-- "Alice" -->
     <g transform="translate(21.291096 33.737983) scale(0.09 -0.09)">
      <defs>
       <path id="DejaVuSans-22" d="M 1147 4666 
L 1147 2931 
L 616 2931 
L 616 4666 
L 1147 4666 
z
M 2328 4666 
L 2328 2931 
L 1797 2931 
L 1797 4666 
L 2328 4666 
z
" transform="scale(0.015625)"/>
      </defs>
      <use xlink:href="#DejaVuSans-22"/>
      <use xlink:href="#DejaVuSans-41" x="45.996094"/>
      <use xlink:href="#DejaVuSans-6c" x="114.404297"/>
      <use xlink:href="#DejaVuSans-69" x="142.1875"/>
      <use xlink:href="#DejaVuSans-63" x="169.970703"/>
      <use xlink:href="#DejaVuSans-65" x="224.951172"/>
      <use xlink:href="#DejaVuSans-22" x="286.474609"/>
     </g>
    </g>
   </g>
   <g id="text_10">
    <g clip-path="url(#pec93f19cdf)">
     <!-- "Bob" -->
     <g transform="translate(300.109451 33.737983) scale(0.09 -0.09)">
      <use xlink:href="#DejaVuSans-22"/>
      <use xlink:href="#DejaVuSans-42" x="45.996094"/>
      <use xlink:href="#DejaVuSans-6f" x="114.599609"/>
      <use xlink:href="#DejaVuSans-62" x="175.78125"/>
      <use xlink:href="#DejaVuSans-22" x="239.257812"/>
     </g>
    </g>
   </g>
  </g>
 </g>
 <defs>
  <clipPath id="pec93f19cdf">
   <rect x="7.2" y="7.2" width="334.8" height="277.2"/>
  </clipPath>
 </defs>
</svg>
